<?xml version="1.0" encoding="UTF-8"?>
<svg width="89px" height="20px" viewBox="0 0 89 20" version="1.1" xmlns="http://www.w3.org/2000/svg" xmlns:xlink="http://www.w3.org/1999/xlink">
    <!-- Generator: Sketch 44 (41411) - http://www.bohemiancoding.com/sketch -->
    <title>bb_logo</title>
    <desc>Created with Sketch.</desc>
    <defs></defs>
    <g id="order" stroke="none" stroke-width="1" fill="none" fill-rule="evenodd">
        <g id="p_order_1" transform="translate(-264.000000, -1003.000000)" fill-rule="nonzero">
            <g id="Group-6" transform="translate(70.000000, 701.000000)">
                <g id="Group-10" transform="translate(194.000000, 302.000000)">
                    <g id="bb_logo">
                        <path d="M88.822718,6.5511742 L88.6824215,6.9140129 C88.5464845,7.27865805 88.4495335,7.49027095 88.315136,7.7816258 C88.2312655,7.9643355 88.136623,8.1800774 88.002995,8.48588385 L85.17577,15.5150452 C84.683064,16.7671742 83.699191,17.4825291 82.4806345,17.4825291 C82.0579485,17.4825291 81.5662685,17.3553033 81.285675,17.2399484 L81.032012,17.1315613 L81.146404,16.8773678 C81.539594,16.0327226 81.7914615,15.7635613 82.6119545,15.6938839 C82.9202485,15.6719484 83.262142,15.3052387 83.4978505,14.7349162 L83.617629,14.4440774 L81.0617645,8.4820129 C80.926084,8.16588385 80.819643,7.9155613 80.718845,7.6691097 C80.6200985,7.43865805 80.52443,7.2092387 80.401061,6.92588385 L80.239989,6.5511742 L81.501891,6.5511742 C82.2279975,6.5511742 82.5498855,6.7787871 82.830479,7.49027095 C82.830479,7.49027095 84.236525,10.9958194 84.3421965,11.2513033 C84.445816,11.5096258 84.5673895,12.1266581 84.5673895,12.1266581 L84.6345885,12.1227871 C84.6345885,12.1227871 84.7256405,11.574142 84.834133,11.2513033 C84.943652,10.9313033 86.198116,7.4980129 86.198116,7.4980129 C86.460499,6.7976258 86.819064,6.5511742 87.563894,6.5511742 L88.822718,6.5511742 Z M73.074745,6.46020645 C73.28814,6.46020645 73.497431,6.49298065 73.5056385,6.49298065 L73.7333965,6.5296258 L73.7333965,8.5487226 L73.4027885,8.4720774 C73.4027885,8.4720774 73.2317135,8.4315613 73.026526,8.4315613 C72.1870535,8.4315613 71.4473535,9.0664 71.148293,10.0442065 C71.0346705,10.4147871 70.982091,10.8400774 70.982091,11.3466581 L70.982091,14.742271 L68.989209,14.742271 L68.989209,6.5515613 L69.690437,6.5515613 C70.6317335,6.5515613 70.9297685,7.07904515 70.9297685,7.57788385 L70.9297685,8.14020645 C71.167016,7.19930325 72.217575,6.46020645 73.074745,6.46020645 Z M78.8554875,6.46020645 C79.0678565,6.46020645 79.274326,6.49298065 79.2861245,6.49298065 L79.5102915,6.5296258 L79.5102915,8.5487226 L79.183531,8.4720774 C79.183531,8.4720774 79.012456,8.4315613 78.807012,8.4315613 C77.964718,8.4315613 77.226044,9.0664 76.9277525,10.0442065 C76.813361,10.4147871 76.758986,10.8400774 76.758986,11.3466581 L76.758986,14.742271 L74.7661045,14.742271 L74.7661045,6.5515613 L75.4714355,6.5515613 C76.414528,6.5515613 76.7094845,7.07904515 76.7094845,7.57788385 L76.7094845,8.14020645 C76.9457065,7.19930325 77.9983175,6.46020645 78.8554875,6.46020645 Z M27.9546435,6.64869675 C30.1973409,6.64869675 31.887315,8.48585805 31.887315,10.9250839 C31.887315,13.3645678 30.1460441,15.2027613 27.8343524,15.2027613 C25.3287588,15.2027613 23.7131651,13.5844387 23.6121103,10.9777291 L23.6121103,3.80172903 L24.3756637,3.80172903 C25.2023121,3.80172903 25.6062746,4.20508387 25.6062746,5.03785805 L25.6062746,6.5880516 C25.6062746,7.04611615 25.5488222,7.49411615 25.5488222,7.49411615 L25.6062746,7.49411615 C26.0543524,7.10650325 26.8279086,6.64869675 27.9546435,6.64869675 Z M54.871475,6.64869675 C57.1151985,6.64869675 58.806968,8.48585805 58.806968,10.9250839 C58.806968,13.3645678 57.0639015,15.2027613 54.7529795,15.2027613 C52.249438,15.2027613 50.6307665,13.5844387 50.5333025,10.9777291 L50.5333025,3.80172903 L51.295573,3.80172903 C52.120939,3.80172903 52.5231065,4.20508387 52.5231065,5.03785805 L52.5231065,6.5880516 C52.5231065,7.04611615 52.46668,7.49411615 52.46668,7.49411615 L52.5231065,7.49411615 C52.97734,7.10650325 53.7457665,6.64869675 54.871475,6.64869675 Z M54.5416365,13.4074065 C55.6517,13.4074065 56.800236,12.4863742 56.800236,10.9372129 C56.800236,9.3939871 55.6693975,8.46908385 54.571389,8.46908385 C53.61419,8.46908385 52.445135,9.12069675 52.445135,10.9511484 C52.445135,12.1622452 53.2617805,13.4074065 54.5416365,13.4074065 Z M36.9804746,6.64779355 C39.4752959,6.64779355 41.3525034,8.47824515 41.3525034,10.9086968 C41.3525034,13.3161807 39.4316936,15.2021162 36.9804746,15.2021162 C34.4961691,15.2021162 32.6294775,13.3569549 32.6294775,10.9086968 C32.6294775,8.47824515 34.4961691,6.64779355 36.9804746,6.64779355 Z M27.6237789,13.4074065 C28.7297386,13.4074065 29.8803265,12.4863742 29.8803265,10.9372129 C29.8803265,9.3939871 28.7487184,8.46908385 27.6535311,8.46908385 C26.6973582,8.46908385 25.5272775,9.12069675 25.5272775,10.9511484 C25.5272775,12.1622452 26.3418712,13.4074065 27.6237789,13.4074065 Z M36.9804746,13.3959226 C38.3229127,13.3959226 39.3301259,12.3267613 39.3301259,10.9086968 C39.3301259,9.51050325 38.3229127,8.4511484 36.9804746,8.4511484 C35.6503478,8.4511484 34.6480078,9.51050325 34.6480078,10.9086968 C34.6480078,12.3267613 35.6503478,13.3959226 36.9804746,13.3959226 Z M48.356906,13.2268903 C48.6667389,13.6849549 48.8762864,13.9879226 49.2386985,14.4996645 L49.5418628,14.9172129 L48.0427129,14.9172129 C47.2319665,14.9172129 46.9149521,14.7383742 46.4371222,13.9920516 C46.4371222,13.9920516 45.849517,13.0232774 45.7376899,12.8385033 C45.6240674,12.6506323 45.4376034,12.2204387 45.4376034,12.2204387 L45.3832288,12.2204387 C45.3773297,12.2302452 45.1677821,12.6994065 45.0862201,12.8385033 C45.0059406,12.9804387 44.3957648,13.9879226 44.3957648,13.9879226 C43.9474305,14.7383742 43.6304161,14.9172129 42.7840184,14.9172129 L41.2840991,14.9172129 L41.5723873,14.4996645 C41.747053,14.2514065 41.8981222,14.0457291 42.0494478,13.8341162 C42.2615602,13.5546323 42.4534103,13.2795355 42.7050213,12.9030194 L44.0677216,10.6485678 L42.4639262,8.24985805 C42.1520415,7.79747095 41.9435199,7.49450325 41.5813642,6.97785805 L41.2782,6.55772905 L42.7760674,6.55772905 C43.5878397,6.55772905 43.9066495,6.7412129 44.3857619,7.49063225 C44.3857619,7.49063225 44.9713152,8.4555355 45.0831423,8.64340645 C45.1947129,8.83024515 45.3832288,9.26224515 45.3832288,9.26224515 L45.4376034,9.26224515 C45.4435026,9.25140645 45.6530501,8.78147095 45.7307648,8.64340645 C45.8159176,8.50018065 46.4222461,7.49450325 46.4222461,7.49450325 C46.8744276,6.7412129 47.1883642,6.55772905 48.0350184,6.55772905 L49.5359637,6.55772905 L49.2456236,6.97785805 C49.0766006,7.22818065 48.9206582,7.4359226 48.770615,7.64185805 C48.560298,7.9288258 48.3656265,8.1992774 48.114785,8.57785805 L46.7382346,10.6485678 L48.356906,13.2268903 Z M66.3981035,12.6882581 C66.9197925,12.6882581 67.1893575,13.1274839 67.374026,13.5060645 L67.4568705,13.6807742 L67.321703,13.8131613 C67.271176,13.8660645 66.13649,15.1058065 64.107957,15.1058065 C61.6126225,15.1058065 59.6197405,13.3063226 59.6197405,10.8263226 C59.6197405,8.30735485 61.3004815,6.54735485 63.707072,6.54735485 C65.9546425,6.54735485 67.476876,8.09780645 67.476876,10.4041291 C67.476876,10.6116129 67.4568705,11.0030968 67.4214755,11.2735484 L61.6857205,11.2735484 C61.8049855,12.6805162 63.146141,13.3223226 64.1831065,13.3223226 C64.792513,13.3223226 65.308046,13.0828387 65.7284235,12.8872258 L65.7602275,12.8750968 C65.9636195,12.7806452 66.1711155,12.6882581 66.3981035,12.6882581 Z M63.844291,8.1135484 C62.700628,8.1135484 61.836533,8.89574195 61.7052135,9.74812905 L65.5873575,9.74812905 C65.5873575,8.6371613 64.69351,8.1135484 63.844291,8.1135484 Z M8.10866945,15.9206968 C8.97789425,15.0512774 10.3821449,15.0512774 11.2493178,15.9206968 C12.1193121,16.7942452 12.1193121,18.2068903 11.2493178,19.0804387 C10.3821449,19.9519226 8.97789425,19.9519226 8.10866945,19.0804387 C7.24765215,18.2068903 7.24765215,16.7942452 8.10866945,15.9206968 Z M11.8391544,12.1698065 C12.7070968,11.2983226 14.1126299,11.2983226 14.9805723,12.1698065 C15.8474887,13.0402581 15.8474887,14.4529033 14.9805723,15.3285162 C14.1126299,16.199742 12.7070968,16.199742 11.8391544,15.3285162 C10.9750593,14.4529033 10.9750593,13.0402581 11.8391544,12.1698065 Z M15.5724351,8.4163355 C16.4378127,7.5448516 17.8438588,7.5448516 18.7120576,8.4163355 C19.5761527,9.28781935 19.5761527,10.7027871 18.7120576,11.5760774 C17.8438588,12.4493678 16.4378127,12.4493678 15.5724351,11.5760774 C14.7024409,10.7027871 14.7024409,9.28781935 15.5724351,8.4163355 Z M4.38241642,12.1698065 C5.2503588,11.2983226 6.6546095,11.2983226 7.5238343,12.1698065 C8.38895535,13.0402581 8.38895535,14.4549678 7.5238343,15.3285162 C6.6546095,16.199742 5.2503588,16.199742 4.38241642,15.3285162 C3.51626945,14.4549678 3.51626945,13.0402581 4.38241642,12.1698065 Z M0.651059365,8.4163355 C1.52002767,7.5448516 2.92530432,7.5448516 3.79350317,8.4163355 C4.65965014,9.2916903 4.65965014,10.7027871 3.79350317,11.5760774 C2.92530432,12.4493678 1.52002767,12.4493678 0.651059365,11.5760774 C-0.217139481,10.7027871 -0.217139481,9.2916903 0.651059365,8.4163355 Z M8.10866945,8.4163355 C8.97789425,7.5448516 10.3821449,7.5448516 11.255217,8.4163355 C12.1193121,9.28781935 12.1193121,10.7027871 11.255217,11.5760774 C10.3821449,12.4493678 8.97789425,12.4493678 8.10866945,11.5760774 C7.24765215,10.7027871 7.24765215,9.28781935 8.10866945,8.4163355 Z M4.38241642,4.66485162 C5.2503588,3.79336774 6.6546095,3.79336774 7.5238343,4.66485162 C8.38895535,5.5363355 8.38895535,6.95130325 7.5238343,7.8248516 C6.6546095,8.6963355 5.2503588,8.6963355 4.38241642,7.8248516 C3.51626945,6.95130325 3.51626945,5.5363355 4.38241642,4.66485162 Z M11.8391544,4.66485162 C12.7070968,3.79336774 14.1126299,3.79336774 14.9805723,4.66485162 C15.8474887,5.5363355 15.8474887,6.95130325 14.9805723,7.8248516 C14.1126299,8.6963355 12.7070968,8.6963355 11.8391544,7.8248516 C10.9750593,6.95130325 10.9750593,5.5363355 11.8391544,4.66485162 Z" id="Combined-Shape" fill="#E50046"></path>
                        <path d="M8.10866945,0.911690325 C8.97789425,0.0402064516 10.382145,0.0402064516 11.255217,0.911690325 C12.1193121,1.78523871 12.1193121,3.19788387 11.255217,4.06936774 C10.382145,4.94085161 8.97789425,4.94085161 8.10866945,4.06936774 C7.24765215,3.19788387 7.24765215,1.78523871 8.10866945,0.911690325" id="Fill-34" fill="#AFCA0B"></path>
                    </g>
                </g>
            </g>
        </g>
    </g>
</svg>